<svg xmlns="http://www.w3.org/2000/svg" viewBox="0 0 160 176" shape-rendering="crispEdges"><g transform="translate(8 4)"><g><rect x="28" y="8" width="32" height="8" fill="#20182a"/><rect x="20" y="16" width="48" height="8" fill="#20182a"/><rect x="24" y="24" width="40" height="32" fill="#d99a72"/><rect x="20" y="32" width="8" height="16" fill="#d99a72"/><rect x="60" y="32" width="8" height="16" fill="#d99a72"/><rect x="32" y="32" width="8" height="8" fill="#30222d"/><rect x="48" y="32" width="8" height="8" fill="#30222d"/><rect x="40" y="48" width="16" height="8" fill="#b55a5a"/><rect x="16" y="56" width="56" height="16" fill="#8e1f35"/><rect x="24" y="72" width="40" height="48" fill="#a9233c"/><rect x="8" y="64" width="16" height="24" fill="#a9233c"/><rect x="64" y="64" width="16" height="24" fill="#a9233c"/><rect x="32" y="56" width="16" height="16" fill="#f4d17c"/><rect x="40" y="72" width="8" height="8" fill="#f4d17c"/><rect x="28" y="120" width="16" height="28" fill="#292034"/><rect x="48" y="120" width="16" height="28" fill="#292034"/><rect x="24" y="148" width="24" height="8" fill="#171321"/><rect x="48" y="148" width="24" height="8" fill="#171321"/></g><g transform="translate(72 0)"><rect x="24" y="8" width="40" height="8" fill="#f1dfbd"/><rect x="16" y="16" width="56" height="8" fill="#f1dfbd"/><rect x="24" y="24" width="40" height="8" fill="#d7a26f"/><rect x="20" y="32" width="48" height="24" fill="#d7a26f"/><rect x="28" y="40" width="8" height="8" fill="#30222d"/><rect x="52" y="40" width="8" height="8" fill="#30222d"/><rect x="36" y="48" width="16" height="8" fill="#b55a5a"/><rect x="16" y="56" width="56" height="16" fill="#c8324d"/><rect x="8" y="64" width="72" height="16" fill="#d23a52"/><rect x="16" y="80" width="56" height="40" fill="#c8324d"/><rect x="8" y="96" width="72" height="16" fill="#d23a52"/><rect x="28" y="56" width="24" height="16" fill="#f6d27d"/><rect x="36" y="72" width="8" height="8" fill="#f6d27d"/><rect x="28" y="120" width="16" height="28" fill="#7f2639"/><rect x="48" y="120" width="16" height="28" fill="#7f2639"/><rect x="24" y="148" width="24" height="8" fill="#4c2030"/><rect x="48" y="148" width="24" height="8" fill="#4c2030"/><rect x="8" y="16" width="8" height="40" fill="#b52e46"/><rect x="64" y="16" width="8" height="40" fill="#b52e46"/><rect x="0" y="8" width="8" height="8" fill="#f6d27d"/><rect x="72" y="8" width="8" height="8" fill="#f6d27d"/></g><rect x="67" y="84" width="26" height="8" fill="#f6d27d"/><rect x="76" y="76" width="8" height="24" fill="#f6d27d"/></g></svg>